<svg width="28" height="23" viewBox="0 0 28 23" fill="none" xmlns="http://www.w3.org/2000/svg">
<path d="M5.45067 3.68L5.06193 1.38H3.6666C3.45847 0.5888 2.7342 0 1.86667 0C0.8372 0 0 0.82524 0 1.84C0 2.85476 0.8372 3.68 1.86667 3.68C2.7342 3.68 3.45847 3.0912 3.66707 2.3H4.27093L4.50427 3.68H4.48653L6.89967 15.6474C5.74933 15.7338 4.79127 16.6069 4.67833 17.7054C4.61207 18.3517 4.82767 18.9989 5.27007 19.4801C5.71293 19.9626 6.34387 20.24 7 20.24H7.93333C7.93333 21.7621 9.18913 23 10.7333 23C12.2775 23 13.5333 21.7621 13.5333 20.24H18.6667C18.6667 21.7621 19.9225 23 21.4667 23C23.0109 23 24.2667 21.7621 24.2667 20.24H26.1333C26.3914 20.24 26.6 20.0344 26.6 19.78C26.6 19.5256 26.3914 19.32 26.1333 19.32H24.1033C23.7179 18.2496 22.6833 17.48 21.4667 17.48C20.2501 17.48 19.2155 18.2496 18.83 19.32H13.37C12.9845 18.2496 11.9499 17.48 10.7333 17.48C9.51673 17.48 8.48213 18.2496 8.09667 19.32H7C6.60707 19.32 6.22907 19.1535 5.96213 18.8632C5.69287 18.5693 5.5664 18.1912 5.607 17.7979C5.67793 17.1037 6.32847 16.5605 7.08773 16.5605H7.45687C7.4634 16.5605 7.46853 16.5605 7.47507 16.5605H25.6723C26.9561 16.56 28 15.531 28 14.266V3.68H5.45067ZM1.86667 2.76C1.35193 2.76 0.933333 2.34738 0.933333 1.84C0.933333 1.33262 1.35193 0.92 1.86667 0.92C2.3814 0.92 2.8 1.33262 2.8 1.84C2.8 2.34738 2.3814 2.76 1.86667 2.76ZM21.4667 18.4C22.4961 18.4 23.3333 19.2252 23.3333 20.24C23.3333 21.2548 22.4961 22.08 21.4667 22.08C20.4372 22.08 19.6 21.2548 19.6 20.24C19.6 19.2252 20.4372 18.4 21.4667 18.4ZM10.7333 18.4C11.7628 18.4 12.6 19.2252 12.6 20.24C12.6 21.2548 11.7628 22.08 10.7333 22.08C9.70387 22.08 8.86667 21.2548 8.86667 20.24C8.86667 19.2252 9.70387 18.4 10.7333 18.4ZM27.0667 14.266C27.0667 15.0236 26.4413 15.64 25.6727 15.64H7.8498L5.6238 4.6H27.0667V14.266Z" fill="#8D6204"/>
</svg>
